<?xml version="1.0" encoding="UTF-8"?>
<svg viewBox="0 0 307.59 210.84" xmlns="http://www.w3.org/2000/svg">
 <defs>
  <linearGradient id="g" x1=".053215" x2="1.1552" y1=".78" y2="1">
   <stop offset="0"/>
   <stop stop-color="#5d5c5c" offset=".16709"/>
   <stop offset=".30664"/>
   <stop stop-color="#7c7c7c" offset=".50633"/>
   <stop offset=".64588"/>
   <stop stop-color="#ccc" offset=".80294"/>
   <stop offset=".89264"/>
   <stop stop-opacity="0" offset="1"/>
  </linearGradient>
  <linearGradient id="f" x1=".32268" x2="1.123" y1=".16108" y2="1.1735">
   <stop stop-color="#06712e" offset="0"/>
   <stop stop-color="#63a67c" offset="1"/>
  </linearGradient>
  <linearGradient id="h" x1=".4517" x2=".4517" y1=".090618" y2="1.478">
   <stop stop-color="#c5913e" offset="0"/>
   <stop stop-color="#8f5902" offset=".15562"/>
   <stop stop-color="#8f5902" stop-opacity=".612" offset=".48324"/>
   <stop stop-color="#8f5902" offset=".59791"/>
   <stop stop-color="#8f5902" stop-opacity="0" offset="1"/>
  </linearGradient>
  <linearGradient id="e" x1=".98282" y1=".12834" y2="1">
   <stop stop-color="#c17d11" offset="0"/>
   <stop stop-color="#8f5902" offset="1"/>
  </linearGradient>
 </defs>
 <rect x="-349.25" y="-156.32" width="999.02" height="475.94" fill="url(#f)"/>
 <path d="m-377.73-180.56v521.12h1051.5v-521.12h-1051.4zm36.133 28.476h979.19v464.16h-979.19v-464.16z" fill="url(#e)"/>
 <path d="m-377.73-180.56v3.3816l36.133 28.743v-3.6485h0.33878l-35.681-28.476h-0.7904z" fill="#e9b96e"/>
 <path d="m-377.28-180.56l35.681 28.476h5.0812l-35.681-28.476h-5.0812z" fill="#8f5902"/>
 <path d="m-377.73 339.85v-3.3816l36.133-28.743v3.6485h0.33878l-35.681 28.476h-0.7904z" fill="#784b02"/>
 <path d="m-377.28 340.35l35.681-28.476h5.0812l-35.681 28.476h-5.0812z" fill="#c17d11"/>
 <path d="m674.24-180.56v3.3816l-36.133 28.743v-3.6485h-0.33856l35.681-28.476h0.7904-1.83e-4z" fill="#e9b96e"/>
 <path d="m673.79-180.56l-35.681 28.476h-5.0808l35.681-28.476h5.0812-3.66e-4z" fill="#8f5902"/>
 <path d="m674.24 339.85v-3.3816l-36.133-28.743v3.6485h-0.33856l35.681 28.476h0.7904-1.83e-4z" fill="#784b02"/>
 <path d="m673.79 340.35l-35.681-28.476h-5.0808l35.681 28.476h5.0812-3.66e-4z" fill="#c17d11"/>
 <path d="m-345.65-155.94l2.5548 471.21 14.453-2.014 2.5548-446.42h964.74v-22.781h-984.3z" fill="#2e3436" opacity=".383"/>
 <path d="m642.45-155.91l-14.453 1.958v1.869h9.5982v464.16h-976.82v3.203h984.28l-2.5973-471.19z" fill="#eeeeec" opacity=".383"/>
 <g fill="#e9b96e" stroke="#e9b96e">
  <path d="m369.43-176.36c-8.2813 0.042999-16.632 0.804-24.96 1.691 5.5082 0.323 10.942 0.80501 16.371 1.424 11.352 0.95401 22.634 0.505 33.852-0.17799-8.3505-2.231-16.754-2.981-25.264-2.937zm25.264 2.937c0.23672 0.063004 0.47165 0.112 0.70749 0.17799 21.404-1.123 42.65-0.22899 63.866 0.356-21.304-4.218-42.849-1.857-64.574-0.534zm64.574 0.534c2.4762 0.49 4.9053 1.098 7.3771 1.78 2.5222-0.578 5.1766-1.045 7.8815-1.424-5.0818-0.061005-10.181-0.216-15.259-0.356zm15.259 0.356c11.107 0.132 22.174 0.056 33.348-0.71201 13.017-0.468 25.465 0.767 38.198 0.53401-23.687-0.186-50.201-2.812-71.546 0.17799zm-130.06-2.136c-17.906-1.051-36.077-0.62801-53.861 0.89 6.9418 0.339 13.887 0.80501 20.918 1.602 10.899-0.020004 21.914-1.317 32.943-2.492zm-53.861 0.89c-19.07-0.92999-37.903-0.401-56.893 0.534 10.374 0.76201 20.733 1.703 31.124 2.403 8.4037-1.206 17.077-2.195 25.769-2.937zm-56.893 0.534c-19.705-1.447-39.334-2.192-58.51 0.623-2.2989 0.153-4.5782 0.242-6.8708 0.356 15.185 1.508 30.254 2.591 44.766 0.17799 6.9134-0.37399 13.769-0.81999 20.615-1.157zm-65.381 0.979c-21.64-2.15-43.645-5.21-65.18-0.356-0.71545 0.087997-1.4061 0.103-2.1224 0.17801 22.492 0.60399 44.786 1.297 67.302 0.17799zm-1.9203-1.157c-76.964 0.668-88.567 0.356-100.35 0.356-4.4951-0.375-9.0175-0.414-13.541-0.44501 16.319 1.168 32.498 2.736 48.505 1.068l65.382-0.979zm18.796-0.89c-147.92-0.289-163.22-0.998-178.76 1.869-23.804-2.652-47.791-1.501-71.647-0.53401 16.261 0.24701 32.452 0.384 48.304-0.267 23.124 2.815 46.4-0.42299 69.424-0.267l132.68-0.801zm-117.73 0.534c-12.766-0.194-25.577-0.411-38.502-0.44499 2.2712 0.38699 4.5469 0.823 6.7707 1.335 10.555 0.025009 21.131-0.461 31.731-0.89zm79.226-0.979c-12.227-2.083-25.108-2.478-38.198-2.047 6.4675 0.308 12.765 1.039 18.897 2.225 6.4294-0.138 12.896-0.19501 19.301-0.17801zm-207.06-2.492c-7.0505 0.174-13.935 1.153-20.817 2.225 10.716-0.003998 21.153 0.091003 28.295 0.267 6.6357-0.093002 13.279-0.075989 19.908 0-3.8862-0.36099-7.811-0.851-11.722-1.335-5.309-1.038-10.529-1.283-15.663-1.157zm-271.23 3.56c-6.7272 0.002991-13.018-0.044006-19.301 0l2.2226 2.314c5.6997-0.563 11.381-1.427 17.079-2.314zm451.71-5.517c-21.251-0.078003-43.496 2.566-64.573 1.601-22.743 1.661-45.196 0.884-67.605 0.623 27.433 2.543 54.304 2.191 81.55 2.047 19.177-0.96899 39.314-3.397 59.015-4.093-2.7705-0.12-5.5747-0.168-8.3877-0.17799zm541.75 3.648l-14.552 0.712c-3.1003 0.319-6.1501 0.452-9.1964 0.534 8.4126 0.031998 16.46-0.235 23.748-1.246z" opacity=".3"/>
  <path d="m414.4-161.14c-10.87 0.052109-21.811 0.96182-32.741 2.0467 7.2718 0.39134 14.459 0.93161 21.626 1.6908 14.8 1.1566 29.535 0.65225 44.16-0.17796-10.89-2.7185-21.947-3.6128-33.045-3.5595zm33.045 3.5595c0.2699 0.067474 0.53842 0.10822 0.80838 0.17796 27.799-1.3562 55.309-0.17284 82.864 0.53394-27.638-5.0835-55.489-2.3118-83.672-0.7119zm83.672 0.7119c3.2275 0.59361 6.4804 1.221 9.7012 2.0467 3.3395-0.71106 6.6743-1.24 10.004-1.6908-6.571-0.073761-13.14-0.18767-19.705-0.35596zm19.705 0.356c2.7845 0.031326 5.6032 0.082291 8.3875 0.088837l1.0106-1.0679c-3.1258 0.23408-6.2696 0.55537-9.3981 0.97887v1.53e-4zm-169.16-2.5807c-23.14-1.2454-46.646-0.66414-69.626 1.1569 9.0059 0.40944 18.062 0.99646 27.183 1.9577 14.063-0.022781 28.213-1.7022 42.442-3.1146zm-69.626 1.1569c-24.773-1.1262-49.303-0.50598-73.971 0.62291 13.481 0.92088 27.019 2.0907 40.522 2.9366 10.948-1.4605 22.124-2.6621 33.449-3.5595zm-73.971 0.6229c-25.616-1.7497-51.166-2.6908-76.093 0.71193-2.9473 0.18308-5.8519 0.21954-8.7916 0.35593 19.708 1.8193 39.169 3.1795 58.005 0.26683 9.0163-0.45276 17.951-0.92619 26.88-1.3348v1.37e-4zm-84.885 1.0679c-28.155-2.5991-56.765-6.2288-84.784-0.35593-0.90194 0.10336-1.8258 0.1788-2.7284 0.2668 29.272 0.73111 58.208 1.4494 87.512 0.088837v2.9e-4zm-87.512-0.0888c-15.058-0.3761-30.262-0.71226-45.575-0.71191-6.019-0.46674-12.03-0.68381-18.089-0.7119 21.444 1.415 42.635 3.4734 63.664 1.4238zm-63.664-1.4238c-19.605-1.2937-39.415-2.0064-59.42 1.4238-30.69-3.1794-61.504-1.786-92.262-0.62292 20.877 0.29112 41.59 0.42122 61.946-0.35597 29.877 3.3828 59.983-0.58302 89.736-0.44492zm-151.68 0.8007c-16.668-0.23235-33.449-0.57597-50.325-0.62291 2.7915 0.45012 5.5503 1.0156 8.2864 1.6018 13.969 0.030777 28.009-0.44833 42.038-0.97887zm101.36-1.4236c-168.15-1.8553-185.55-2.1966-203.22-1.602 8.8806 0.34479 17.568 1.0698 25.971 2.5807 8.5353-0.17029 17.063-0.2016 25.566-0.17796l151.68-0.8007zm-51.537-2.4027c-27.215-1.0566-56.222 2.0464-83.976 1.8687l3.1327 3.0256c1.4874-0.008575 2.9575 0.00853 4.4464 0 24.808-1.1654 50.905-4.0365 76.397-4.8944z" opacity=".3"/>
  <path d="m-186.06-168.17c-11.102-0.044144-22.151 0.67574-33.045 2.9366 14.625 0.6899 29.361 1.1392 44.16 0.17798 7.1462-0.62909 14.374-1.0987 21.625-1.4238-10.93-0.90152-21.872-1.6475-32.741-1.6908zm32.741 1.6908c14.229 1.1737 28.481 2.4721 42.544 2.4916 9.0094-0.78891 17.883-1.2608 26.779-1.6018-22.903-1.4983-46.266-1.9236-69.323-0.88988zm69.323 0.8899c11.43 0.74776 22.806 1.712 33.853 2.9366 13.478-0.70163 26.965-1.5492 40.422-2.3137-24.778-0.94228-49.387-1.5767-74.274-0.62291zm74.274 0.6229c8.9289 0.33957 17.864 0.69165 26.88 1.0679 18.826 2.419 38.307 1.3326 58.005-0.17799-2.9398-0.11333-5.8443-0.20361-8.7917-0.35596-24.952-2.8303-50.452-1.9906-76.093-0.53394zm10.611 0.267c29.213 1.1269 58.132 0.5173 87.31-0.088837-0.83656-0.068634-1.6904-0.1871-2.5264-0.26685-28.028-4.8819-56.62-1.893-84.784 0.26685v0.088837zm87.31-0.0888c21.135 1.7335 42.514-0.065506 64.068-1.2459-6.1259 0.019943-12.205 0.14183-18.291 0.53395-15.407-3.2e-4 -30.628 0.39714-45.777 0.71191zm64.068-1.2459c29.687-0.099091 59.724 3.2496 89.534 0.44496 20.554 0.65208 41.469 0.51372 62.552 0.26682-30.933-0.96953-62.002-2.2123-92.868 0.44493-19.962-2.8442-39.654-2.2276-59.217-1.1568v1.37e-4zm152.09 0.7119c13.852 0.43417 27.639 0.8262 41.432 0.80089 2.8312-0.50403 5.6991-0.95164 8.5895-1.3348-16.757 0.036423-33.469 0.34018-50.021 0.53392zm50.021-0.5339c8.4181-0.01712 16.814 0.038712 25.264 0.17796 8.3845-1.2527 17.11-1.8482 25.971-2.1357-17.564-0.4912-34.85-0.21414-51.234 1.9578zm51.234-1.9578c25.492 0.71288 51.588 3.0361 76.396 4.0045 3.2138 0.014221 6.3936-0.014252 9.6002 0l2.6274-2.5807c-29.186 0.52023-59.848-2.3576-88.624-1.4238zm-698.99 1.9578c-28.354-1.3376-56.374-3.7082-84.178 0.62291 27.723-0.58598 55.401-1.5787 83.369-0.44495 0.26614-0.056961 0.54218-0.12273 0.80847-0.17796zm-9.9033 1.2457c-6.3975 0.13525-12.797 0.20731-19.2 0.2668 3.3301 0.37463 6.6648 0.83296 10.004 1.4238 3.0535-0.65044 6.1367-1.2142 9.1959-1.6908v1.53e-4zm-9.2969-0.9789c-6.8018-0.76512-13.538-1.0554-20.312-1.1568l0.7075 0.8009 0.4041 0.3559c6.4128 0.070053 12.793 0.059799 19.2 0z" opacity=".3"/>
 </g>
 <g transform="matrix(3.212 0 0 -2.8476 -269.75 884.83)" fill="#e9b96e" stroke="#e9b96e" stroke-width="1.005">
  <path d="m199.9 191.66c-2.5611 0.014999-5.1435 0.28229-7.7188 0.59375 1.7034 0.1135 3.3835 0.28282 5.0625 0.5 3.5105 0.33499 6.9995 0.17737 10.469-0.0625-2.5823-0.78348-5.1812-1.0467-7.8125-1.0312zm7.8125 1.0312c0.073105 0.022186 0.14571 0.03949 0.21875 0.0625 6.6191-0.39429 13.189-0.080276 19.75 0.125-6.588-1.4811-13.251-0.65198-19.969-0.1875zm19.969 0.1875c0.76573 0.17215 1.517 0.38579 2.2812 0.625 0.78003-0.2028 1.601-0.36693 2.4375-0.5-1.5716-0.021225-3.1486-0.075867-4.7188-0.125zm4.7188 0.125c3.4344 0.046387 6.8568 0.019714 10.312-0.25 4.0254-0.16438 7.8746 0.26929 11.812 0.1875-7.3251-0.065384-15.524-0.98758-22.125 0.0625zm-40.219-0.75c-5.5373-0.36896-11.156-0.22052-16.656 0.3125 2.1466 0.11891 4.2945 0.28272 6.4688 0.5625 3.3707-0.006897 6.7769-0.46251 10.188-0.875zm-16.656 0.3125c-5.8973-0.32666-11.721-0.14096-17.594 0.1875 3.2083 0.26756 6.4114 0.59793 9.625 0.84375 2.5987-0.42331 5.2807-0.77072 7.9688-1.0312zm-17.594 0.1875c-6.0936-0.50818-12.164-0.76964-18.094 0.21875-0.71095 0.05397-1.4159 0.084991-2.125 0.125 4.6959 0.52976 9.3558 0.90985 13.844 0.0625 2.1377-0.13107 4.258-0.28784 6.375-0.40625zm-20.219 0.3438c-6.6919-0.75493-13.497-1.8294-20.156-0.125-0.22122 0.031006-0.43484 0.036285-0.65624 0.0625 6.9554 0.21211 13.85 0.45543 20.812 0.0625zm-0.5938-0.4062c-23.801 0.23453-27.389 0.12491-31.031 0.125-1.3901-0.13162-2.7886-0.14548-4.1875-0.15625 5.0466 0.41006 10.05 0.96097 15 0.375l20.219-0.3438zm5.8125-0.3125c-45.742-0.10152-50.473-0.35037-55.281 0.65625-7.3612-0.93121-14.779-0.52687-22.156-0.1875 5.0285 0.0867 10.036 0.13477 14.938-0.09375 7.1508 0.9886 14.349-0.14859 21.469-0.09375l41.031-0.2812zm-36.406 0.1875c-3.9479-0.068054-7.9096-0.14441-11.906-0.15625 0.70233 0.1359 1.4061 0.28886 2.0938 0.46875 3.264 0.008789 6.5346-0.16171 9.8125-0.3125zm24.5-0.3438c-3.781-0.73163-7.7645-0.87024-11.812-0.71875 1.9999 0.10797 3.9472 0.3649 5.8438 0.78125 1.9882-0.048447 3.9878-0.068359 5.9688-0.0625zm-64.031-0.875c-2.1804 0.060928-4.3092 0.40474-6.4375 0.78125 3.3138-0.001602 6.5414 0.03183 8.75 0.09375 2.052-0.032822 4.1064-0.026855 6.1562 0-1.2018-0.1268-2.4155-0.29901-3.625-0.46875-1.6418-0.36473-3.256-0.45062-4.8438-0.40625zm-83.875 1.25c-2.0804 9.92e-4 -4.0258-0.015396-5.9688 0l0.6875 0.8125c1.7624-0.19751 3.5194-0.50081 5.2812-0.8125zm139.69-1.9375c-6.5718-0.02742-13.451 0.90132-19.969 0.5625-7.0331 0.58331-13.976 0.31012-20.906 0.21875 8.4835 0.89276 16.793 0.76938 25.219 0.71875 5.9304-0.34018 12.158-1.1928 18.25-1.4375-0.85664-0.041962-1.724-0.058868-2.5938-0.0625zm167.53 1.2812l-4.5 0.25c-0.95856 0.11186-1.902 0.15863-2.8438 0.1875 2.6016 0.011261 5.09-0.082443 7.3438-0.4375z" opacity=".3"/>
  <path d="m213.8 197c-3.3614 0.018295-6.745 0.33777-10.125 0.71875 2.2487 0.13744 4.4713 0.32715 6.6875 0.59375 4.5767 0.40617 9.1335 0.22905 13.656-0.0625-3.3676-0.95465-6.7869-1.2687-10.219-1.25zm10.219 1.25c0.083496 0.023697 0.16653 0.037994 0.25 0.0625 8.5967-0.47624 17.104-0.060699 25.625 0.1875-8.5469-1.7852-17.16-0.81183-25.875-0.25zm25.875 0.25c0.99805 0.20847 2.0039 0.42877 3 0.71875 1.0327-0.2497 2.064-0.43544 3.0938-0.59375-2.0321-0.025909-4.0635-0.065903-6.0938-0.125zm6.0938 0.125c0.86107 0.011002 1.7327 0.0289 2.5938 0.031189l0.3125-0.375c-0.96658 0.082214-1.9388 0.19504-2.9063 0.34376v4.6e-5zm-52.312-0.9062c-7.1559-0.43733-14.425-0.23323-21.531 0.40625 2.785 0.14378 5.5854 0.34993 8.4062 0.6875 4.3488-0.007996 8.7247-0.59776 13.125-1.0938zm-21.531 0.4062c-7.6608-0.39551-15.247-0.17767-22.875 0.21875 4.169 0.32338 8.3554 0.73419 12.531 1.0312 3.3856-0.51288 6.8416-0.93484 10.344-1.25zm-22.875 0.2188c-7.9214-0.61444-15.823-0.94492-23.531 0.25-0.91145 0.064301-1.8097 0.077103-2.7188 0.125 6.0944 0.63887 12.113 1.1165 17.938 0.093689 2.7882-0.159 5.5513-0.32524 8.3125-0.46875v6.1e-5zm-26.25 0.375c-8.7066-0.91272-17.554-2.1874-26.219-0.125-0.27892 0.036301-0.56462 0.06279-0.84375 0.093704 9.0521 0.25674 18 0.50899 27.062 0.031204v9.2e-5zm-27.062-0.0312c-4.6565-0.13208-9.3582-0.25012-14.094-0.25-1.8613-0.16391-3.7203-0.24014-5.5938-0.25 6.6312 0.4969 13.184 1.2198 19.688 0.5zm-19.688-0.5c-6.0626-0.45432-12.189-0.70458-18.375 0.5-9.4905-1.1165-19.02-0.6272-28.531-0.21875 6.456 0.10222 12.861 0.14792 19.156-0.125 9.2393 1.1879 18.549-0.20474 27.75-0.15625zm-46.906 0.2812c-5.1543-0.081604-10.344-0.20226-15.562-0.21875 0.86323 0.15808 1.7164 0.35666 2.5625 0.5625 4.3198 0.010803 8.6616-0.15744 13-0.34375zm31.344-0.5c-52-0.6515-57.38-0.77135-62.844-0.56255 2.7463 0.12108 5.4326 0.37569 8.0312 0.90625 2.6395-0.059799 5.2767-0.070801 7.9062-0.0625l46.906-0.2812zm-15.938-0.8437c-8.416-0.37105-17.386 0.71863-25.969 0.65624l0.9688 1.0625c0.45994-0.003021 0.91456 0.002991 1.375 0 7.6718-0.40927 15.742-1.4175 23.625-1.7188z" opacity=".3"/>
  <path d="m28.114 194.53c-3.4331-0.015503-6.85 0.2373-10.219 1.0312 4.5227 0.24228 9.0796 0.40006 13.656 0.0625 2.2099-0.22092 4.4452-0.38583 6.6875-0.5-3.38-0.31659-6.7636-0.57854-10.125-0.59375zm10.125 0.5938c4.4003 0.41217 8.8074 0.86812 13.156 0.875 2.7861-0.27704 5.5302-0.44278 8.2812-0.5625-7.0825-0.52615-14.308-0.67552-21.438-0.3125zm21.438 0.3125c3.5347 0.26259 7.0524 0.6012 10.469 1.0312 4.1681-0.2464 8.3387-0.54404 12.5-0.8125-7.6626-0.3309-15.273-0.55371-22.969-0.21875zm22.969 0.2188c2.7612 0.11923 5.5243 0.24287 8.3125 0.375 5.8218 0.84949 11.846 0.46797 17.938-0.0625-0.90909-0.039795-1.8073-0.071503-2.7188-0.125-7.7162-0.99393-15.602-0.69905-23.531-0.1875zm3.2812 0.0938c9.0338 0.39574 17.977 0.18167 27-0.031189-0.25868-0.024109-0.52275-0.065704-0.78125-0.093704-8.6676-1.7144-17.509-0.66475-26.219 0.093704v0.031189zm27-0.0312c6.5358 0.60875 13.147-0.02301 19.812-0.4375-1.8944 0.006989-3.7742 0.049789-5.6562 0.1875-4.7645-1.22e-4 -9.4716 0.13946-14.156 0.25zm19.812-0.4375c9.1806-0.034821 18.469 1.1412 27.688 0.15625 6.3561 0.22897 12.824 0.18039 19.344 0.093689-9.5658-0.34047-19.174-0.77687-28.719 0.15625-6.1731-0.99881-12.263-0.78227-18.312-0.40625v6.1e-5zm47.031 0.25c4.2836 0.15247 8.5471 0.29013 12.812 0.28124 0.87552-0.17699 1.7624-0.33418 2.6562-0.46874-5.182 0.012787-10.35 0.11946-15.469 0.1875zm15.469-0.1875c2.6032-0.006012 5.1996 0.01358 7.8125 0.0625 2.5929-0.43994 5.2913-0.64905 8.0312-0.75-5.4316-0.1725-10.777-0.075211-15.844 0.6875zm15.844-0.6875c7.8831 0.25034 15.953 1.0662 23.625 1.4062 0.9938 0.005005 1.9771-0.00499 2.9688 0l0.8125-0.9062c-9.0254 0.18268-18.508-0.82794-27.406-0.5zm-216.16 0.6875c-8.7683-0.46971-17.433-1.3022-26.031 0.21874 8.573-0.20576 17.132-0.5544 25.781-0.15624 0.0823-0.020004 0.16766-0.043121 0.25-0.0625zm-3.0625 0.4374c-1.9784 0.047501-3.9573 0.0728-5.9375 0.093704 1.0298 0.13155 2.061 0.29251 3.0938 0.5 0.94426-0.22842 1.8977-0.42641 2.8438-0.59375v4.6e-5zm-2.875-0.3438c-2.1034-0.26869-4.1864-0.37064-6.2812-0.40625l0.2188 0.2812 0.125 0.125c1.9831 0.024597 3.9561 0.020996 5.9375 0z" opacity=".3"/>
 </g>
 <g transform="matrix(0 1.6679 -3.6132 0 749.95 264.38)" fill="#e9b96e" stroke="#e9b96e" stroke-width="1.282">
  <path d="m-35.166 22.473c-2.5611 0.014999-5.1435 0.28228-7.7188 0.59375 1.7034 0.11351 3.3835 0.28283 5.0625 0.50001 3.5106 0.33499 6.9995 0.17735 10.469-0.062508-2.5823-0.78347-5.1812-1.0467-7.8125-1.0312zm7.8125 1.0312c0.073111 0.022179 0.1457 0.03949 0.21875 0.062508 6.6191-0.39429 13.189-0.080276 19.75 0.12499-6.588-1.4811-13.251-0.65197-19.969-0.1875zm19.969 0.1875c0.76572 0.17215 1.517 0.38579 2.2812 0.62501 0.78001-0.2028 1.601-0.36693 2.4375-0.5-1.5716-0.021217-3.1486-0.075867-4.7188-0.12501zm4.7188 0.125c3.4345 0.046371 6.8568 0.019699 10.312-0.25 4.0253-0.16439 7.8746 0.26927 11.812 0.18749-7.3252-0.065392-15.524-0.98758-22.125 0.062508zm-40.219-0.75c-5.5373-0.36895-11.156-0.22052-16.656 0.3125 2.1466 0.11892 4.2945 0.28273 6.4688 0.5625 3.3707-0.006889 6.7769-0.4625 10.188-0.875zm-16.656 0.3125c-5.8973-0.32666-11.721-0.14096-17.594 0.18751 3.2083 0.26756 6.4114 0.59793 9.625 0.84375 2.5987-0.42331 5.2807-0.77074 7.9688-1.0313zm-17.594 0.1875c-6.0936-0.50819-12.164-0.76964-18.094 0.21874-0.71094 0.05397-1.4159 0.084991-2.125 0.125 4.6959 0.52977 9.3558 0.90986 13.844 0.0625 2.1377-0.13108 4.258-0.28784 6.375-0.40624zm-20.219 0.3437c-6.6919-0.75493-13.497-1.8294-20.156-0.125-0.22122 0.030998-0.43484 0.036301-0.65625 0.0625 6.9554 0.21212 13.85 0.45543 20.812 0.0625zm-0.5938-0.4062c-23.801 0.23452-27.389 0.1249-31.031 0.125-1.3901-0.13162-2.7886-0.14547-4.1875-0.15625 5.0466 0.41006 10.05 0.96097 15 0.375l20.219-0.3438zm5.8125-0.3125c-45.742-0.10151-50.473-0.35037-55.281 0.65625-7.3612-0.93121-14.779-0.52687-22.156-0.1875 5.0285 0.0867 10.036 0.13478 14.938-0.093742 7.1508 0.9886 14.349-0.14859 21.469-0.093758l41.031-0.2812zm-36.406 0.1875c-3.9479-0.068062-7.9096-0.14441-11.906-0.15625 0.70233 0.13591 1.4061 0.28886 2.0938 0.46875 3.264 0.008797 6.5346-0.16171 9.8125-0.3125zm24.5-0.3437c-3.781-0.73163-7.7645-0.87024-11.812-0.71876 1.9999 0.10798 3.9472 0.36489 5.8438 0.78125 1.9882-0.048439 3.9878-0.068359 5.9688-0.062492zm-64.031-0.875c-2.1803 0.060928-4.3092 0.40474-6.4375 0.78125 3.3138-0.001602 6.5414 0.03183 8.75 0.093758 2.052-0.032829 4.1064-0.026871 6.1562 0-1.2018-0.12681-2.4155-0.29903-3.625-0.46875-1.6418-0.36474-3.256-0.45063-4.8438-0.40626zm-83.875 1.25c-2.0804 9.99e-4 -4.0258-0.015404-5.9687 0l0.6875 0.8125c1.7624-0.19752 3.5194-0.50082 5.2812-0.81251zm139.69-1.9375c-6.5718-0.02742-13.451 0.90132-19.969 0.5625-7.0332 0.58332-13.976 0.31012-20.906 0.21875 8.4835 0.89276 16.793 0.76937 25.219 0.71875 5.9304-0.34017 12.158-1.1928 18.25-1.4375-0.85664-0.041962-1.724-0.058861-2.5938-0.0625zm167.53 1.2812l-4.5 0.25c-0.95856 0.11187-1.9019 0.15864-2.8438 0.1875 2.6015 0.011261 5.09-0.082443 7.3438-0.4375z" opacity=".3"/>
  <path d="m-21.26 27.817c-3.3613 0.018303-6.7449 0.3378-10.125 0.7188 2.2488 0.1374 4.4714 0.3271 6.6875 0.5937 4.5767 0.4062 9.1336 0.2291 13.656-0.0625-3.3676-0.9546-6.7869-1.2687-10.219-1.25zm10.219 1.25c0.0835 0.023701 0.1665 0.038002 0.25 0.0625 8.5966-0.4762 17.104-0.060699 25.625 0.1875-8.547-1.7851-17.16-0.8118-25.875-0.25zm25.875 0.25c0.998 0.2085 2.0039 0.4288 3 0.7188 1.0327-0.2497 2.0639-0.4355 3.0937-0.5938-2.032-0.025898-4.0635-0.065899-6.0937-0.125zm6.0937 0.125c0.8611 0.011002 1.7327 0.0289 2.5938 0.0312l0.3125-0.375c-0.9666 0.082203-1.9388 0.195-2.9063 0.3438zm-52.312-0.9062c-7.1558-0.4374-14.425-0.2333-21.531 0.4062 2.785 0.1438 5.5854 0.35 8.4062 0.6875 4.3489-0.007999 8.7247-0.5977 13.125-1.0937zm-21.531 0.4062c-7.6609-0.3955-15.247-0.1777-22.875 0.2188 4.169 0.3234 8.3554 0.7342 12.531 1.0312 3.3857-0.5128 6.8416-0.9348 10.344-1.25zm-22.875 0.2188c-7.9214-0.6145-15.823-0.9449-23.532 0.25-0.91101 0.064297-1.809 0.077099-2.718 0.125 6.0941 0.6388 12.112 1.1165 17.937 0.093697 2.7882-0.159 5.5513-0.3253 8.3125-0.4688v1.03e-4zm-26.25 0.375c-8.707-0.9127-17.555-2.1874-26.219-0.125-0.27901 0.036297-0.565 0.062798-0.84401 0.093697 9.052 0.2567 18 0.509 27.063 0.0312v1.03e-4zm-27.063-0.0312c-4.656-0.1321-9.358-0.2502-14.094-0.25-1.861-0.1639-3.72-0.2402-5.593-0.25 6.631 0.4969 13.184 1.2197 19.687 0.5zm-19.687-0.5c-6.063-0.4543-12.189-0.7046-18.375 0.5-9.491-1.1165-19.02-0.6272-28.532-0.2188 6.456 0.1023 12.862 0.148 19.157-0.125 9.239 1.188 18.549-0.2047 27.75-0.1562zm-46.907 0.2812c-5.154-0.0816-10.343-0.2023-15.562-0.2188 0.86299 0.1581 1.716 0.3567 2.562 0.5625 4.32 0.010803 8.662-0.1574 13-0.3437zm31.344-0.5c-52-0.6515-57.38-0.7713-62.844-0.5625 2.747 0.121 5.433 0.3757 8.032 0.9062 2.639-0.059799 5.276-0.070797 7.906-0.0625l46.906-0.2812zm-15.937-0.8437c-8.416-0.3711-17.387 0.7186-25.969 0.6562l0.969 1.0625c0.45999-0.003002 0.914 0.002998 1.375 0 7.671-0.4092 15.742-1.4175 23.625-1.7187z" opacity=".3"/>
  <path d="m-206.95 25.348c-3.4331-0.015511-6.85 0.23729-10.219 1.0312 4.5227 0.24227 9.0796 0.40004 13.656 0.0625 2.2099-0.22093 4.4452-0.38585 6.6875-0.5-3.38-0.31659-6.7636-0.57854-10.125-0.59375zm10.125 0.5938c4.4003 0.41216 8.8074 0.86811 13.156 0.875 2.7861-0.27705 5.5302-0.44278 8.2812-0.56251-7.0825-0.52616-14.308-0.67552-21.438-0.31249zm21.438 0.3125c3.5347 0.26259 7.0524 0.60119 10.469 1.0313 4.1681-0.2464 8.3387-0.54404 12.5-0.8125-7.6626-0.33091-15.273-0.55371-22.969-0.21876zm22.969 0.2188c2.7612 0.11923 5.5243 0.24288 8.3125 0.37499 5.8218 0.84949 11.846 0.46798 17.938-0.0625-0.90909-0.039803-1.8073-0.071503-2.7187-0.125-7.7162-0.99392-15.602-0.69905-23.531-0.18749zm3.2812 0.0938c9.0338 0.39573 17.977 0.18166 27-0.0312-0.25867-0.024097-0.52275-0.065708-0.78125-0.093708-8.6676-1.7144-17.509-0.66475-26.219 0.093708v0.0312zm27-0.0312c6.5358 0.60875 13.147-0.022999 19.812-0.4375-1.8944 0.006992-3.7742 0.049801-5.6562 0.1875-4.7645-1.18e-4 -9.4716 0.13946-14.156 0.25zm19.812-0.4375c9.1806-0.034809 18.469 1.1412 27.688 0.15625 6.3561 0.22899 12.824 0.1804 19.344 0.0937-9.5658-0.34047-19.174-0.77688-28.719 0.15625-6.1731-0.99882-12.263-0.78228-18.312-0.40625v5e-5zm47.031 0.25c4.2836 0.15247 8.5471 0.29015 12.812 0.28125 0.87553-0.17699 1.7624-0.33418 2.6562-0.46874-5.182 0.012791-10.35 0.11947-15.469 0.18749zm15.469-0.1875c2.6032-0.006008 5.1996 0.013592 7.8125 0.0625 2.5929-0.43993 5.2913-0.64903 8.0312-0.75-5.4316-0.17251-10.777-0.075199-15.844 0.6875zm15.844-0.6875c7.8831 0.25033 15.953 1.0662 23.625 1.4062 0.99379 0.004997 1.9771-0.005001 2.9688 0l0.8125-0.9062c-9.0254 0.18268-18.508-0.82794-27.406-0.5zm-216.16 0.6875c-8.7683-0.46971-17.433-1.3022-26.031 0.21875 8.573-0.20578 17.132-0.55441 25.781-0.15625 0.082306-0.020008 0.16766-0.04311 0.25-0.0625zm-3.0625 0.4374c-1.9784 0.047501-3.9573 0.0728-5.9375 0.0937 1.0298 0.13156 2.061 0.29251 3.0938 0.5 0.94426-0.22842 1.8977-0.4264 2.8438-0.59375v5e-5zm-2.875-0.3438c-2.1034-0.26869-4.1864-0.37062-6.2812-0.40625l0.2188 0.2813 0.125 0.125c1.9831 0.024597 3.9561 0.021008 5.9375 0z" opacity=".3"/>
 </g>
 <g transform="matrix(0 1.6772 3.6132 0 -1003.4 262.66)" fill="#e9b96e" stroke="#e9b96e" stroke-width="1.282">
  <path d="m-34.012 174.54c-2.5611 0.014999-5.1435 0.28227-7.7188 0.59375 1.7034 0.11351 3.3835 0.28282 5.0625 0.5 3.5106 0.33501 6.9995 0.17735 10.469-0.0625-2.5823-0.78348-5.1812-1.0467-7.8125-1.0312zm7.8125 1.0312c0.073111 0.022171 0.1457 0.039474 0.21875 0.0625 6.6191-0.39429 13.189-0.080276 19.75 0.125-6.588-1.4811-13.251-0.65198-19.969-0.1875zm19.969 0.1875c0.76572 0.17215 1.517 0.38579 2.2812 0.625 0.78001-0.2028 1.601-0.36693 2.4375-0.5-1.5716-0.021225-3.1486-0.075867-4.7188-0.125zm4.7188 0.125c3.4345 0.046371 6.8568 0.019699 10.312-0.25 4.0253-0.16438 7.8746 0.26927 11.812 0.1875-7.3252-0.065384-15.524-0.9876-22.125 0.0625zm-40.219-0.75c-5.5373-0.36894-11.156-0.22052-16.656 0.3125 2.1466 0.11891 4.2945 0.28272 6.4688 0.5625 3.3707-0.006897 6.7769-0.46251 10.188-0.875zm-16.656 0.3125c-5.8973-0.32668-11.721-0.14096-17.594 0.1875 3.2083 0.26756 6.4114 0.59795 9.625 0.84375 2.5987-0.42329 5.2807-0.77072 7.9688-1.0312zm-17.594 0.1875c-6.0936-0.50818-12.164-0.76964-18.094 0.21875-0.71094 0.053955-1.4159 0.084991-2.125 0.125 4.6959 0.52977 9.3558 0.90985 13.844 0.0625 2.1377-0.13109 4.258-0.28784 6.375-0.40625zm-20.219 0.3438c-6.6919-0.75493-13.497-1.8294-20.156-0.125-0.22123 0.030991-0.43484 0.036301-0.65625 0.0625 6.9554 0.21211 13.85 0.45543 20.812 0.0625zm-0.5938-0.4062c-23.801 0.23453-27.389 0.12489-31.031 0.125-1.3901-0.13162-2.7886-0.14548-4.1875-0.15625 5.0466 0.41005 10.05 0.96097 15 0.375l20.219-0.3438zm5.8125-0.3125c-45.742-0.10152-50.473-0.35037-55.281 0.65625-7.3612-0.93121-14.779-0.52687-22.156-0.1875 5.0285 0.086685 10.036 0.13478 14.938-0.09375 7.1508 0.9886 14.349-0.14858 21.469-0.09375l41.031-0.2812zm-36.406 0.1875c-3.9479-0.068054-7.9096-0.14441-11.906-0.15625 0.70233 0.13591 1.4061 0.28886 2.0938 0.46875 3.264 0.008789 6.5346-0.16171 9.8125-0.3125zm24.5-0.3438c-3.781-0.73161-7.7645-0.87022-11.812-0.71875 1.9999 0.10799 3.9472 0.3649 5.8438 0.78125 1.9882-0.048431 3.9878-0.068359 5.9688-0.0625zm-64.031-0.875c-2.1803 0.060928-4.3092 0.40474-6.4375 0.78125 3.3138-0.001602 6.5414 0.03183 8.75 0.09375 2.052-0.032822 4.1064-0.026871 6.1562 0-1.2018-0.1268-2.4155-0.29903-3.625-0.46875-1.6418-0.36473-3.256-0.45062-4.8438-0.40625zm-83.875 1.25c-2.0804 9.92e-4 -4.0258-0.015396-5.9688 0l0.6875 0.8125c1.7624-0.19752 3.5194-0.50081 5.2812-0.8125zm139.69-1.9375c-6.5718-0.02742-13.451 0.90132-19.969 0.5625-7.0331 0.58331-13.976 0.3101-20.906 0.21875 8.4835 0.89276 16.793 0.76936 25.219 0.71875 5.9304-0.34016 12.158-1.1928 18.25-1.4375-0.85665-0.041962-1.724-0.058868-2.5938-0.0625zm167.53 1.2812l-4.5 0.25c-0.95856 0.11186-1.9019 0.15865-2.8438 0.1875 2.6015 0.011261 5.09-0.082443 7.3438-0.4375z" opacity=".3"/>
  <path d="m-20.106 179.89c-3.3614 0.018295-6.745 0.33777-10.125 0.71875 2.2487 0.13742 4.4713 0.32715 6.6875 0.59375 4.5767 0.40617 9.1335 0.22905 13.656-0.0625-3.3676-0.95465-6.7869-1.2687-10.219-1.25zm10.219 1.25c0.0835 0.023697 0.16653 0.03801 0.25 0.0625 8.5966-0.47624 17.104-0.060699 25.625 0.1875-8.5469-1.7852-17.16-0.81181-25.875-0.25zm25.875 0.25c0.99805 0.20847 2.0039 0.42879 3 0.71875 1.0327-0.24971 2.064-0.43544 3.0938-0.59375-2.0321-0.025894-4.0636-0.065903-6.0938-0.125zm6.0938 0.125c0.86102 0.011002 1.7327 0.0289 2.5938 0.031189l0.3125-0.375c-0.96662 0.082199-1.9388 0.19502-2.9062 0.34375v4.6e-5zm-52.312-0.9062c-7.1559-0.43733-14.425-0.23323-21.531 0.40625 2.785 0.14378 5.5854 0.34993 8.4062 0.6875 4.3488-0.008011 8.7247-0.59776 13.125-1.0938zm-21.531 0.4062c-7.6608-0.39551-15.247-0.17767-22.875 0.21875 4.169 0.32338 8.3554 0.73419 12.531 1.0312 3.3856-0.51288 6.8416-0.93486 10.344-1.25zm-22.875 0.2188c-7.9214-0.61444-15.823-0.94493-23.531 0.25-0.91145 0.064301-1.8097 0.077103-2.7188 0.125 6.0944 0.63888 12.113 1.1165 17.938 0.093704 2.7882-0.159 5.5513-0.32526 8.3125-0.46876v6.1e-5zm-26.25 0.375c-8.7066-0.91272-17.554-2.1874-26.219-0.125-0.27892 0.036301-0.56461 0.062805-0.84375 0.093704 9.0521 0.25673 18 0.50899 27.062 0.031204v9.2e-5zm-27.062-0.0312c-4.6565-0.13206-9.3582-0.25012-14.094-0.25-1.8613-0.1639-3.7203-0.24013-5.5938-0.25 6.6312 0.49692 13.184 1.2198 19.688 0.5zm-19.688-0.5c-6.0626-0.45428-12.189-0.70456-18.375 0.5-9.4905-1.1165-19.02-0.62717-28.531-0.21875 6.456 0.10225 12.861 0.14792 19.156-0.125 9.2393 1.1879 18.549-0.20473 27.75-0.15625zm-46.906 0.2812c-5.1543-0.081589-10.344-0.20226-15.562-0.21875 0.86324 0.15807 1.7164 0.35666 2.5625 0.5625 4.3198 0.010803 8.6616-0.15746 13-0.34375zm31.344-0.5c-52-0.6515-57.38-0.77135-62.844-0.56255 2.7463 0.12108 5.4326 0.37569 8.0312 0.90625 2.6395-0.059799 5.2767-0.070801 7.9062-0.0625l46.906-0.2812zm-15.938-0.8438c-8.416-0.37103-17.386 0.71866-25.969 0.65625l0.9688 1.0625c0.45995-0.003006 0.91455 0.002991 1.375 0 7.6718-0.40926 15.742-1.4175 23.625-1.7188z" opacity=".3"/>
  <path d="m-205.79 177.42c-3.4331-0.015503-6.85 0.23729-10.219 1.0312 4.5227 0.24226 9.0796 0.40004 13.656 0.0625 2.2099-0.22092 4.4452-0.38583 6.6875-0.5-3.38-0.31659-6.7636-0.57854-10.125-0.59375zm10.125 0.5938c4.4003 0.41216 8.8074 0.86812 13.156 0.875 2.7861-0.27704 5.5302-0.44276 8.2812-0.5625-7.0825-0.52617-14.308-0.67552-21.438-0.3125zm21.438 0.3125c3.5347 0.26259 7.0524 0.60118 10.469 1.0312 4.1681-0.24638 8.3387-0.54404 12.5-0.8125-7.6626-0.3309-15.273-0.55371-22.969-0.21875zm22.969 0.2188c2.7612 0.11925 5.5243 0.24289 8.3125 0.375 5.8218 0.84949 11.846 0.46797 17.938-0.0625-0.90909-0.03981-1.8073-0.071503-2.7188-0.125-7.7162-0.99393-15.602-0.69905-23.531-0.1875zm3.2812 0.0938c9.0338 0.39574 17.977 0.18166 27-0.031204-0.25868-0.024094-0.52275-0.065704-0.78125-0.093689-8.6676-1.7144-17.509-0.66475-26.219 0.093689v0.031204zm27-0.0312c6.5358 0.60875 13.147-0.022995 19.812-0.4375-1.8944 0.007004-3.7742 0.049805-5.6562 0.1875-4.7645-1.07e-4 -9.4716 0.13946-14.156 0.25zm19.812-0.4375c9.1806-0.034805 18.469 1.1412 27.688 0.15625 6.3561 0.229 12.824 0.18042 19.344 0.093704-9.5658-0.34047-19.174-0.77687-28.719 0.15625-6.1731-0.99881-12.263-0.78227-18.312-0.40625v4.6e-5zm47.031 0.25c4.2836 0.15248 8.5471 0.29015 12.812 0.28125 0.87553-0.177 1.7624-0.33418 2.6562-0.46875-5.182 0.012802-10.35 0.11948-15.469 0.1875zm15.469-0.1875c2.6032-0.005997 5.1996 0.013611 7.8125 0.0625 2.5929-0.43993 5.2913-0.64903 8.0312-0.74998-5.4316-0.1725-10.777-0.075211-15.844 0.68748zm15.844-0.6875c7.8831 0.25032 15.953 1.0662 23.625 1.4062 0.99379 0.005005 1.9771-0.005005 2.9688 0l0.8125-0.9062c-9.0254 0.18269-18.508-0.82793-27.406-0.49998zm-216.16 0.6875c-8.7683-0.4697-17.433-1.3022-26.031 0.21875 8.573-0.20578 17.132-0.5544 25.781-0.15625 0.082306-0.020004 0.16766-0.043091 0.25-0.0625zm-3.0625 0.4375c-1.9784 0.047501-3.9573 0.0728-5.9375 0.093689 1.0298 0.13156 2.061 0.29253 3.0938 0.50002 0.94426-0.22842 1.8977-0.42641 2.8438-0.59375v4.6e-5zm-2.875-0.3438c-2.1034-0.26869-4.1864-0.37062-6.2812-0.40625l0.2188 0.2812 0.125 0.125c1.9831 0.024597 3.9561 0.021011 5.9375 0z" opacity=".3"/>
 </g>
 <path d="m-376.05 342.42v21.178h1051.5v-21.178h-1051.5z" fill="#925b03"/>
 <path d="m659.76 344.58c-6.6078 0.062012-13.357 0.37701-20.132 0.90701-7.1716 0.35498-14.128 0.58798-21.25 0.84698 11.795-0.057007 23.424-0.06601 35.231 0 4.7831-0.046997 11.01-0.097992 17.223-0.121v-1.512c-1.4966-0.032013-3.0817-0.10602-4.5853-0.121-2.1837-0.02301-4.2848-0.019989-6.4866 0zm-41.382 1.754c-37.673 0.18399-75.51 0.69501-113.74-0.423-40.696 0.746-84.079-1.679-124.48-0.96799 33.578 0.47098 67.971 2.182 100.66 2.843 45.909 0.097015 91.361 0.22601 137.57-1.452zm-256.01-1.452c-16.582 0.019989-32.898 0.38-48.539 1.452 10.989-0.014008 21.964 0.026001 32.994 0.121 10.402-0.80499 21.13-1.302 32.098-1.512-5.5836-0.074005-11.025-0.067017-16.553-0.059998v-0.001007zm-48.539 1.452c-22.018 0.02301-44.016 0.23099-65.763 0.36301 18.163 0.29498 36.381 0.56198 54.467 0.54498 3.729-0.34399 7.4899-0.647 11.296-0.90799zm-65.763 0.363c-40.468-0.65701-80.971-1.499-121.35 0.30301-26.104-1.928-51.922-1.451-77.507-0.72601 38.862-0.066986 78.301 2.144 117.32 0.242 26.86 0.44101 53.982 0.34799 81.534 0.181zm-198.86-0.423c-8.0228 0.014008-16.076 0.096985-24.046 0.36301-20.059 0-39.888 0.151-59.612 0.36301 27.597 1.156 55.516 0.070984 83.658-0.72601zm-83.658 0.726c-1.1954-0.051025-2.3846-0.002014-3.579-0.061005-36.581-3.302-73.962-1.283-110.72 0.18198 38.242 0.75702 76.103 0.29001 114.3-0.12097zm-114.3 0.121c-3.9567-0.078979-7.8876-0.13599-11.855-0.24197-32.576-1.915-65.728-1.346-99.204-0.36301 11.59 0.229 23.304 0.47198 35.007 0.72598 24.753 1.648 50.151 0.91 76.052-0.12198v9.77e-4zm-111.06-0.605c-32.543-0.643-64.842-1.073-97.527-0.42401 14.968 0.508 29.712 1.166 44.178 1.997 17.736-0.479 35.643-1.053 53.349-1.573zm-97.527-0.424c-6.8873-0.233-13.851-0.39099-20.802-0.54401v1.089c6.9539-0.232 13.88-0.40701 20.802-0.54501zm75.83 5.868c-12.089 0.11899-23.99 0.836-35.79 1.573 18.319-0.002991 36.222 0.061005 48.428 0.181 11.75-0.06601 23.382-0.056 35.119 0-7.0693-0.25699-14.02-0.55499-21.138-0.90701-9.0332-0.70798-17.882-0.93298-26.618-0.84698zm47.756 1.754c46.26 1.685 91.717 1.549 137.68 1.452 32.688-0.66101 67.081-2.372 100.66-2.843-40.401-0.711-83.784 1.714-124.48 0.96799-38.293 1.12-76.125 0.60599-113.86 0.423zm-83.546-0.181c-24.805 0.002991-46.355 0.085999-60.842 0.181v1.452c20.632 1.082 40.653-0.37201 60.842-1.633zm339.89-1.331c-5.5494 0-11.164 0.046997-16.776 0.121 10.969 0.20999 21.696 0.707 32.099 1.512 11.087-0.095001 22.283-0.134 33.329-0.121-15.712-1.087-32.003-1.512-48.652-1.512zm48.652 1.512c3.6989 0.25598 7.3359 0.513 10.961 0.84698 18.586 0.016998 37.142-0.23898 55.81-0.54398-22.143-0.13202-44.346-0.27701-66.77-0.30301zm66.77 0.303c27.084 0.16098 54.001 0.25299 80.415-0.18201 39.058 1.905 78.314-0.25201 117.21-0.181-25.625-0.72702-51.472-1.205-77.619 0.72598-39.878-1.779-80.041-1.016-120.01-0.36298zm197.63-0.363c28.153 0.79898 56.051 1.891 83.658 0.72598-19.782-0.21298-39.717-0.42398-59.836-0.42398-7.9344-0.26502-15.836-0.28799-23.822-0.302zm83.658 0.726c38.195 0.41101 76.064 0.88202 114.3 0.121-36.805-1.465-74.211-3.548-110.84-0.242-1.1426 0.056-2.3239 0.073029-3.4675 0.121zm114.3 0.121c25.857 1.029 51.454 1.706 76.165 0.059998 11.818-0.25497 23.528-0.435 35.23-0.66498-33.59-0.99002-67.075-1.559-99.763 0.36298-3.912 0.104-7.7296 0.164-11.632 0.242zm111.39-0.605c8.5977 0.25299 17.209 0.51498 25.836 0.78598v-1.21c-8.5917 0.121-17.216 0.254-25.836 0.42401zm-142.49 3.569c-22.218-0.015015-44.071 0.29098-64.981 1.21 14.324-0.009003 28.682-0.016998 43.06 0.059998 14.267-0.70599 29.213-1.048 44.289-1.21-7.471-0.069-14.962-0.055023-22.368-0.059998zm22.368 0.06c43.376 0.40198 87.748 1.753 129.96 2.299 5.339 0.008026 10.666-0.009003 15.993 0v-1.452c-48.202 0.16602-98.569-1.356-145.96-0.84698zm-87.349 1.149c-28.514 0.02002-56.834 0.194-85 0.30301 23.57 0.245 46.991 0.43799 70.461 0.423 4.8179-0.284 9.6209-0.51001 14.539-0.72601zm-85 0.303c-52.635-0.547-105.62-1.256-158.15 0.242-33.967-1.603-67.369-1.269-100.66-0.66501 50.515-0.056 101.72 1.823 152.44 0.242 34.973 0.367 70.487 0.32098 106.36 0.181zm-258.8-0.423c-10.424 0.010986-20.736 0.080994-31.092 0.302-26.216 0-52.177 0.246-77.954 0.423 35.963 0.978 72.371-0.059998 109.05-0.72501zm-109.05 0.725c-1.4235-0.037994-2.9395-0.13602-4.362-0.181-47.693-2.752-96.354-1.036-144.28 0.181 49.708 0.63599 98.99 0.34198 148.64 0h1e-4zm-148.64 0c-5.0019-0.063019-9.8596-0.095001-14.874-0.181-42.458-1.596-85.884-1.124-129.51-0.30301 15.194 0.19202 30.514 0.393 45.855 0.60501 32.034 1.364 65.016 0.73099 98.533-0.12v-0.001007zm-144.39-0.484c-23.341-0.29401-46.498-0.539-69.79-0.604v1.875c0.35004 0.014008 0.65631 0.048004 1.0064 0.059998 22.934-0.39499 45.886-0.89999 68.783-1.331zm92.829 3.751c-46.696-0.026001-95.766 1.802-142.04 1.149-6.9181 0.15601-13.69 0.20401-20.578 0.30301v1.573c17.189 0.005005 34.283-0.03299 51.559-0.061005 42.487-0.66098 87.212-2.311 130.86-2.782-6.5621-0.08902-13.125-0.17801-19.796-0.18201zm43.171 0.06c-7.1856-0.005005-14.434 0.048004-21.698 0.121 14.275 0.20999 28.18 0.70599 41.718 1.513 14.351-0.095001 28.649-0.134 42.948-0.121-20.347-1.076-41.411-1.495-62.967-1.513zm62.967 1.513c4.9223 0.26001 9.8297 0.504 14.652 0.84601 23.484 0.017975 47.1-0.189 70.684-0.483-28.228-0.13202-56.758-0.33902-85.336-0.36301zm85.336 0.363c35.836 0.16699 71.314 0.25998 106.25-0.18201 50.666 1.901 101.87-0.36401 152.33-0.302-33.249-0.72501-66.846-1.141-100.77 0.78601-52.507-1.802-105.19-0.96002-157.81-0.302h-1.01e-4zm258.58-0.484c36.586 0.797 72.834 1.942 108.71 0.78601-25.621-0.21201-51.339-0.42401-77.395-0.423-10.414-0.268-20.835-0.35101-31.316-0.36301zm108.71 0.786c49.666 0.41098 98.921 0.81799 148.64 0.059998-47.76-1.464-96.529-3.481-144.05-0.181-1.5512 0.05899-3.0329 0.070984-4.5852 0.121zm148.64 0.06c33.691 1.033 67.008 1.771 99.204 0.121 15.342-0.255 30.439-0.435 45.632-0.66501-43.646-0.98901-87.042-1.618-129.51 0.302-5.16 0.107-10.177 0.164-15.323 0.24298v-9.77e-4zm144.84-0.544c11.34 0.25699 22.751 0.51199 34.111 0.78601v-1.209c-11.349 0.12201-22.719 0.25-34.111 0.423z" fill="#e9b96e" opacity=".3" stroke="#e9b96e"/>
 <path d="m-111.88 299.29c0.96776 2.5604 1.4679 5.2344 1.4679 7.9682 0 15.273-15.967 10.789-38.504 16.093v3.8278c0 3.1201 3.7022 5.682 8.9202 6.6403 0.29021 3.5537 4.386 6.4058 9.5978 6.4058h163.73c5.1019 0 9.2652-2.7245 9.7106-6.1714 0.73916-0.09201 1.4601-0.23612 2.1453-0.39072 4.7723-1.0764 8.1299-3.5344 8.1299-6.484v-2.5778c-3.2278-0.52408-6.3814-0.91107-9.3719-1.2499-5.9809-0.67776-11.4-1.1299-16.147-1.7187-11.867-1.4717-23.78-0.93707-23.78-11.354 0-2.0504 2.1565-7.0807 5.2616-9.0356 0.66167-0.41663 0.43554-1.3129 0.67744-1.953h-121.84z" opacity=".306"/>
 <g transform="matrix(.4571 0 0 .27798 -424.65 553.05)">
  <rect transform="matrix(1 0 0 2 -8.8869 -883.01)" x="581.91" y="31.141" width="400.8" height="28.792" rx="13.82" ry="13.82" fill="url(#g)"/>
  <path d="m634.71-930.87c2.1171 10.492 3.2206 21.371 3.2206 32.574 0 62.586-34.902 44.434-84.205 66.166v15.473c0 16.116 12.948 29.113 29.063 29.113h384.27c16.116 0 29.064-12.998 29.064-29.113v-10.383c-56.49-17.178-98.03-2.96-98.03-71.256 0-11.203 1.1034-22.082 3.2206-32.574h-266.6z" fill="#e9b96e"/>
  <path d="m634.71-930.87c2.1171 10.492 3.2206 21.371 3.2206 32.574 0 62.586-34.902 44.434-84.205 66.166v15.473c0 16.116 12.948 29.113 29.063 29.113h384.27c16.116 0 29.064-12.998 29.064-29.113v-10.383c-56.49-17.178-98.03-2.96-98.03-71.256 0-11.203 1.1034-22.082 3.2206-32.574h-266.6z" fill="url(#h)"/>
 </g>
 <path d="m-253.03 300l-5.0812 0.0888h-10.388l0.6774 11.034 0.2259 8.5429h-1.1292v8.7209h1.355v0.44495l-10.953 0.1779v11.302h11.291v1.1568h14.34v-1.1568h35.116v-0.26678h0.11288l-0.1129-4.0045v-7.2971l33.084 11.924 0.1129-0.2668 0.2259 0.0888 2.7099-4.9833 3.6133-6.2292-15.018-4.7163-15.13-5.2503v-0.53394h-1.4679l-24.277-8.3649-5.1941 8.9878-13.776 0.0888v-19.399h-0.33872v-0.088837zm0.7904 28.387h18.518l-18.518 0.2667v-0.26672z" opacity=".5"/>
 <g fill="#e5e5e5">
  <path d="m-279.53 320.37l44.562-0.4371 16.172-0.4371v9.6162h-60.734v-8.742z"/>
  <path d="m-267.99 322.53l4.3588 0.4519 0.7092 6.716-4.9604-1.8157-0.1077-5.3522z"/>
 </g>
 <g transform="matrix(0 -.97836 1.4375 0 -911.88 536.62)">
  <path d="m198.76 441.02l31-0.5 11.25-0.5v11h-42.25v-10z" fill="#fff"/>
  <g fill="#e5e5e5">
   <path d="m231.26 441.52l1.75 2.5-3.5 3.75-1.25-3.5 3-2.75z"/>
   <path d="m217.46 442.61l3.0322 0.5168 0.4934 7.6825-3.4507-2.0768-0.075-6.1225h1.5e-5z"/>
   <path d="m237.84 442.24l3.0322-2.1081 0.2434 10.682-3.8257-0.8268 0.55-7.7475z"/>
   <path d="m208.77 441.21l1.9505 2.3785-4.6647 6.124-1.2436-3.8306 3.9579-4.6718z"/>
  </g>
 </g>
 <g transform="matrix(1.307 .47161 -.5984 1.0301 -277.12 363.37)">
  <path d="m1.4216-51.362l31-0.5 11.25-0.5v11h-42.25v-10z" fill="#fff"/>
  <g fill="#e5e5e5">
   <path d="m33.853-48.876l1.75 2.5-3.5 3.75-1.25-3.5 3-2.75z"/>
   <path d="m20.118-49.774l3.0322 0.5169 0.4934 7.6824-3.4507-2.0768-0.075-6.1225h1.9e-5 -8e-6z"/>
   <path d="m40.493-50.149l3.0322-2.1081 0.2434 10.682-3.8257-0.8268 0.5501-7.7475z"/>
   <path d="m16.688-51.625l2.2768 2.2291-7.4929 7.4188-1.0504-3.9191 6.2665-5.7288z"/>
  </g>
 </g>
 <g transform="matrix(1.4375 0 0 1.1329 -458.97 320.42)">
  <path d="m118.16 8.1807l31-0.5 11.25-0.5v11h-42.25v-10z" fill="#fff"/>
  <g fill="#e5e5e5">
   <path d="m150.66 8.6807l1.75 2.5-3.5 3.75-1.25-3.5 3-2.75z"/>
   <path d="m136.86 9.7685l3.0322 0.5169 0.4934 7.6825-3.4507-2.0768-0.075-6.1225h1.5e-5z"/>
   <path d="m157.23 9.3935l3.0322-2.1081 0.2434 10.682-3.8257-0.8268 0.55-7.7475z"/>
   <path d="m128.16 8.3712l1.9505 2.3785-4.6647 6.124-1.2437-3.8307 3.9579-4.6718z"/>
  </g>
 </g>
</svg>
